<?xml version="1.0" encoding="UTF-8"?>
<!-- Generated by @neplex/vectorizer (Using visioncortex VTracer) -->
<svg viewBox="225 226 803 803" version="1.1" xmlns="http://www.w3.org/2000/svg" width="1024" height="1024">
<path d="M0 0 C0.46 0 0.46 0 2.81 -0.01 C3.84 -0.01 4.87 -0.01 5.93 -0.01 C7.01 -0.01 8.1 -0.01 9.23 -0.01 C12.92 -0.02 16.62 -0.02 20.31 -0.02 C22.97 -0.02 25.63 -0.03 28.28 -0.03 C34.85 -0.04 41.42 -0.04 47.98 -0.05 C55.85 -0.05 63.71 -0.06 71.57 -0.07 C90.57 -0.09 109.58 -0.1 128.58 -0.11 C137.56 -0.11 146.55 -0.12 155.54 -0.12 C186.28 -0.14 217.02 -0.15 247.77 -0.16 C249.7 -0.16 251.63 -0.16 253.56 -0.16 C254.04 -0.16 254.04 -0.16 256.46 -0.16 C261.31 -0.16 266.17 -0.17 271.02 -0.17 C271.98 -0.17 272.94 -0.17 273.94 -0.17 C305.16 -0.17 336.39 -0.2 367.62 -0.23 C400.62 -0.27 433.62 -0.28 466.61 -0.29 C470.23 -0.29 473.85 -0.29 477.47 -0.29 C477.92 -0.29 477.92 -0.29 480.18 -0.29 C494.54 -0.29 508.9 -0.31 523.27 -0.33 C537.7 -0.35 552.13 -0.35 566.56 -0.34 C575.14 -0.34 583.72 -0.35 592.3 -0.37 C598.02 -0.38 603.75 -0.38 609.48 -0.37 C612.74 -0.36 616.01 -0.36 619.27 -0.38 C622.79 -0.39 626.3 -0.38 629.82 -0.37 C630.84 -0.38 631.85 -0.39 632.9 -0.4 C641.74 -0.31 645.94 3.16 652.06 9.38 C652.95 10.27 653.83 11.16 654.74 12.08 C656.89 14.3 658.91 16.6 660.92 18.95 C665.55 24.29 670.65 29.14 675.75 34.04 C676.47 34.75 677.2 35.47 677.95 36.2 C678.28 36.52 678.28 36.52 679.95 38.13 C683.08 41.86 683.87 45.53 683.87 50.32 C683.88 51.36 683.89 52.39 683.89 53.45 C683.89 54.58 683.88 55.72 683.88 56.88 C683.88 57.49 683.88 57.49 683.89 60.55 C683.89 63.92 683.89 67.29 683.89 70.66 C683.88 74.32 683.89 77.98 683.9 81.64 C683.9 88.06 683.91 94.48 683.9 100.9 C683.9 110.45 683.9 120 683.91 129.55 C683.93 147.59 683.93 165.63 683.93 183.68 C683.92 197.61 683.93 211.54 683.93 225.47 C683.93 227.47 683.93 229.47 683.93 231.46 C683.93 234.48 683.93 237.49 683.93 240.5 C683.94 268.52 683.95 296.54 683.94 324.56 C683.94 325.62 683.94 326.68 683.94 327.76 C683.94 333.12 683.94 338.48 683.94 343.83 C683.94 344.9 683.94 345.96 683.94 347.06 C683.94 349.21 683.94 351.36 683.94 353.51 C683.93 387 683.94 420.49 683.96 453.97 C683.98 491.57 683.99 529.17 683.99 566.77 C683.99 570.78 683.99 574.78 683.99 578.79 C683.99 579.78 683.99 580.76 683.98 581.78 C683.98 596.69 683.99 611.61 684 626.52 C684.01 643.48 684.01 660.43 684 677.38 C684 686.88 684 696.37 684.01 705.87 C684.02 712.2 684.02 718.54 684 724.87 C684 728.49 684 732.1 684.01 735.72 C684.02 739.6 684.01 743.49 684 747.38 C684 748.51 684.01 749.64 684.02 750.8 C684.02 751.32 684.02 751.32 684 753.94 C684 754.82 684 755.71 684 756.63 C683.13 762.42 678.92 766.06 674.87 769.94 C671.53 773.17 668.32 776.43 665.28 779.96 C661.33 784.53 657.1 788.8 652.81 793.07 C652.43 793.45 652.43 793.45 650.5 795.39 C649.77 796.12 649.04 796.84 648.29 797.59 C647.96 797.92 647.96 797.92 646.3 799.58 C643.58 802.09 641.83 802.25 638.23 802.26 C637.3 802.27 636.37 802.27 635.41 802.27 C634.37 802.27 633.34 802.27 632.28 802.27 C631.18 802.27 630.09 802.28 628.96 802.28 C625.25 802.29 621.54 802.29 617.84 802.3 C615.17 802.3 612.5 802.31 609.83 802.31 C603.23 802.33 596.64 802.34 590.05 802.34 C584.56 802.35 579.08 802.36 573.59 802.37 C573.2 802.37 573.2 802.37 571.2 802.37 C569.59 802.38 567.98 802.38 566.36 802.38 C545.47 802.42 524.57 802.45 503.67 802.47 C500.97 802.47 498.26 802.48 495.55 802.48 C461.14 802.52 426.73 802.55 392.31 802.57 C383.56 802.58 374.81 802.58 366.06 802.59 C365.57 802.59 365.57 802.59 363.13 802.59 C331.77 802.61 300.41 802.66 269.05 802.72 C236.82 802.78 204.59 802.82 172.37 802.83 C167.82 802.83 163.27 802.83 158.72 802.83 C158.27 802.83 158.27 802.83 156 802.83 C141.58 802.84 127.16 802.87 112.73 802.91 C98.24 802.94 83.75 802.96 69.25 802.94 C60.64 802.94 52.03 802.95 43.41 802.99 C37.66 803.01 31.91 803.01 26.15 802.99 C22.87 802.98 19.6 802.98 16.32 803.01 C12.78 803.04 9.25 803.02 5.72 802.99 C4.7 803.01 3.69 803.03 2.64 803.05 C-3.84 802.94 -7.13 801.51 -11.73 796.91 C-12.27 796.32 -12.82 795.73 -13.38 795.13 C-14.37 794.18 -15.36 793.23 -16.36 792.29 C-18.84 789.83 -21.32 787.37 -23.8 784.9 C-25.37 783.32 -26.95 781.76 -28.53 780.2 C-46.17 762.66 -46.17 762.66 -46.5 757 C-46.5 756.11 -46.51 755.22 -46.51 754.3 C-46.51 753.79 -46.51 753.79 -46.52 751.19 C-46.52 750.62 -46.52 750.62 -46.51 747.73 C-46.51 746.53 -46.52 745.32 -46.52 744.07 C-46.52 740.7 -46.53 737.32 -46.52 733.94 C-46.52 730.27 -46.53 726.61 -46.54 722.94 C-46.54 715.66 -46.55 708.38 -46.55 701.1 C-46.55 692.39 -46.56 683.67 -46.57 674.95 C-46.59 653.88 -46.6 632.81 -46.61 611.74 C-46.62 601.78 -46.62 591.82 -46.63 581.86 C-46.64 547.77 -46.66 513.69 -46.67 479.6 C-46.67 477.46 -46.67 475.32 -46.67 473.18 C-46.67 472.12 -46.67 471.06 -46.67 469.96 C-46.67 464.58 -46.67 459.21 -46.67 453.83 C-46.67 452.76 -46.67 451.69 -46.67 450.59 C-46.68 415.97 -46.7 381.34 -46.74 346.72 C-46.77 310.14 -46.79 273.55 -46.79 236.97 C-46.79 232.96 -46.8 228.94 -46.8 224.93 C-46.8 223.94 -46.8 222.95 -46.8 221.94 C-46.8 206.01 -46.81 190.08 -46.83 174.16 C-46.85 158.16 -46.86 142.16 -46.85 126.16 C-46.85 116.65 -46.85 107.13 -46.87 97.62 C-46.89 91.27 -46.89 84.93 -46.87 78.58 C-46.87 74.96 -46.87 71.34 -46.88 67.71 C-46.9 63.82 -46.89 59.92 -46.87 56.03 C-46.88 54.9 -46.89 53.77 -46.9 52.6 C-46.85 46.43 -46.48 42.84 -42.38 38.13 C-41.66 37.28 -40.94 36.42 -40.21 35.54 C-32.9 27.64 -25.35 20 -17.75 12.38 C-17.21 11.83 -16.66 11.28 -16.1 10.72 C-14.54 9.15 -12.97 7.58 -11.4 6.02 C-10.94 5.56 -10.94 5.56 -8.62 3.24 C-5.57 0.36 -4.07 0 0 0 Z " fill="#C2410C" transform="translate(308.3772518634796,225.87119883298874)"/>
<path d="M0 0 C6.56 0.58 9.64 5.54 13.74 10.33 C16.9 14.22 19.86 18.23 22.74 22.33 C23.16 22.91 23.57 23.5 23.99 24.1 C72.95 93.66 113.11 171.65 141.1 275.61 C142.84 283.24 145.48 290.5 148.18 297.83 C153.06 311.21 157.3 324.7 161.24 338.39 C163.02 344.56 164.81 350.7 166.93 356.77 C168.56 361.52 169.82 366.32 170.99 371.2 C171.17 371.92 171.34 372.63 171.52 373.37 C171.98 375.34 172.37 377.34 172.74 379.33 C172.96 380.34 173.19 381.35 173.41 382.4 C172.26 387.45 167.85 389.52 163.74 392.33 C162.24 393.42 160.73 394.52 159.23 395.62 C158.48 396.16 157.73 396.7 156.96 397.26 C147.43 404.15 138.48 411.47 129.74 419.33 C128.88 420.09 128.01 420.86 127.12 421.65 C124.64 423.85 122.19 426.09 119.74 428.33 C119.45 428.59 119.45 428.59 117.98 429.94 C104.43 442.34 104.43 442.34 99.27 448.55 C97.57 450.53 95.74 452.32 93.87 454.14 C89.97 457.98 86.56 462.11 83.14 466.38 C81.12 468.86 79.05 471.3 76.96 473.72 C59.52 493.91 43.89 516.23 30.11 539.06 C28.53 541.69 26.93 544.3 25.33 546.92 C5.81 579.02 -11.85 612.06 -27.26 646.33 C-27.78 647.48 -28.3 648.64 -28.83 649.83 C-36.78 667.56 -43.97 685.54 -50.97 703.66 C-51.13 704.09 -51.13 704.09 -51.97 706.25 C-52.58 707.85 -53.2 709.45 -53.81 711.05 C-58.7 723.77 -58.7 723.77 -60.26 725.33 C-63.03 725.42 -65.77 725.45 -68.54 725.44 C-68.98 725.44 -68.98 725.44 -71.17 725.44 C-74.06 725.44 -76.94 725.43 -79.82 725.43 C-81.82 725.42 -83.81 725.42 -85.81 725.42 C-91.07 725.42 -96.32 725.41 -101.58 725.4 C-106.95 725.39 -112.31 725.38 -117.67 725.38 C-128.2 725.37 -138.73 725.35 -149.26 725.33 C-148.6 720.05 -147.39 716.04 -144.88 711.39 C-144.15 709.97 -143.42 708.55 -142.69 707.13 C-142.3 706.36 -141.9 705.59 -141.5 704.8 C-132.62 687.12 -125.22 668.83 -118.26 650.33 C-118.07 649.82 -118.07 649.82 -117.1 647.27 C-111.44 632.23 -107.5 617.05 -104.26 601.33 C-104.17 600.91 -104.17 600.91 -103.73 598.79 C-101.14 586.13 -100.03 573.82 -99.96 560.91 C-99.95 559.44 -99.93 557.96 -99.9 556.48 C-99.6 541.17 -99.6 541.17 -104.26 534.33 C-111.63 526.96 -121.27 527.75 -131.01 527.67 C-150.92 527.85 -170.69 531.74 -190.31 534.81 C-197.95 536 -205.6 537.1 -213.27 538.09 C-213.74 538.15 -213.74 538.15 -216.14 538.47 C-233.71 540.68 -253.07 539.22 -268.26 529.33 C-265.28 527.34 -263.76 526.88 -260.32 526.24 C-224.7 519.22 -182.97 507.42 -155.51 482.52 C-155.1 482.15 -155.1 482.15 -153.02 480.31 C-151.26 478.33 -151.26 478.33 -151.26 475.33 C-155.97 474.83 -158.08 476.25 -161.88 478.95 C-186.66 495.66 -214.85 506.97 -243.85 513.76 C-245.98 514.26 -248.1 514.79 -250.23 515.32 C-256.57 516.88 -262.73 518.02 -269.26 518.33 C-270.48 518.39 -271.71 518.46 -272.98 518.52 C-293.13 519.25 -307.78 510.5 -322.26 497.33 C-322.99 496.67 -323.72 496.01 -324.47 495.33 C-342.4 478.28 -357.31 454.48 -365.82 431.33 C-365.95 430.99 -365.95 430.99 -366.58 429.3 C-368.54 423.62 -369.39 417.7 -367.45 411.91 C-361.21 402.62 -351.95 398.42 -342.07 393.77 C-340.79 393.16 -339.51 392.55 -338.23 391.94 C-325.74 386 -313.12 380.35 -300.47 374.75 C-293.61 371.71 -286.77 368.64 -279.94 365.54 C-277.98 364.65 -276.02 363.77 -274.06 362.89 C-270.6 361.34 -267.15 359.77 -263.7 358.2 C-262.62 357.72 -261.55 357.25 -260.45 356.75 C-245.02 349.71 -232.52 341.3 -225.81 325.11 C-223.23 317.93 -222.31 310.3 -221.09 302.81 C-217.32 280.07 -208.25 259.93 -193.26 242.33 C-192.54 241.47 -191.82 240.62 -191.09 239.73 C-175.38 221.62 -154.99 205.58 -133.26 195.33 C-132.6 195.33 -131.94 195.33 -131.26 195.33 C-132.18 183.5 -133.4 171.76 -135.07 160.02 C-136.77 148.07 -138.31 136.12 -139.76 124.14 C-139.86 123.27 -139.97 122.4 -140.08 121.51 C-141.2 112.28 -142.3 103.05 -143.36 93.82 C-143.62 91.58 -143.88 89.35 -144.13 87.11 C-144.3 85.68 -144.46 84.25 -144.63 82.82 C-145.57 74.66 -146.63 66.55 -148.01 58.45 C-150.79 41.89 -150.79 41.89 -148.05 35.51 C-146.26 33.33 -146.26 33.33 -143.86 32.8 C-130.51 35.49 -115.38 56.59 -106.81 66.53 C-104.72 68.95 -102.55 71.29 -100.38 73.64 C-95.94 78.52 -91.73 83.55 -87.59 88.69 C-86.08 90.55 -84.54 92.4 -83 94.24 C-76.74 101.76 -70.63 109.36 -64.8 117.23 C-60.99 122.37 -57.08 127.42 -53.13 132.45 C-48.95 137.79 -44.86 143.17 -40.95 148.7 C-40.55 149.26 -40.15 149.82 -39.75 150.39 C-38.17 152.62 -36.6 154.85 -35.03 157.07 C-33.82 158.77 -32.6 160.46 -31.38 162.14 C-30.68 163.12 -29.99 164.09 -29.27 165.1 C-27.21 167.38 -26.29 168.14 -23.26 168.33 C-21.48 166.55 -21.83 163.92 -21.61 161.5 C-21.49 160.25 -21.38 159 -21.26 157.71 C-21.13 156.32 -21.01 154.92 -20.88 153.53 C-20.75 152.09 -20.62 150.64 -20.49 149.19 C-19.04 133.27 -17.74 117.33 -16.45 101.39 C-16.13 97.55 -15.82 93.72 -15.51 89.88 C-15.45 89.12 -15.38 88.36 -15.32 87.58 C-15.01 83.76 -14.7 79.95 -14.39 76.14 C-14.36 75.76 -14.36 75.76 -14.2 73.86 C-14.08 72.34 -13.95 70.82 -13.83 69.3 C-13.5 65.33 -13.18 61.37 -12.86 57.4 C-12.53 53.3 -12.19 49.2 -11.86 45.1 C-11.73 43.55 -11.61 42.01 -11.48 40.47 C-10.79 31.93 -10.01 23.43 -8.76 14.95 C-8.65 14.24 -8.55 13.52 -8.44 12.79 C-7.47 7.1 -6.35 0.64 0 0 Z " fill="#FBEDE5" transform="translate(708.2578125,264.671875)"/>
<path d="M0 0 C3.32 1.56 5.09 3.96 7.18 6.86 C7.61 7.44 8.04 8.03 8.49 8.63 C18.66 22.57 27.18 37.99 33.36 54.11 C33.56 54.6 33.56 54.6 34.57 57.09 C37.56 64.86 39.65 72.77 41.61 80.86 C41.87 81.91 42.13 82.97 42.4 84.05 C44.94 94.84 45.48 105.05 45.36 116.11 C39.3 118.65 33.23 121.17 27.13 123.62 C12 129.68 -2.92 136.09 -17.64 143.11 C-18.1 143.33 -18.1 143.33 -20.43 144.44 C-34.29 151.07 -47.58 158.52 -60.77 166.4 C-63.48 168.02 -66.2 169.62 -68.93 171.21 C-86.9 181.78 -103.84 193.77 -120.64 206.11 C-121.32 206.61 -122.01 207.12 -122.72 207.64 C-132.33 214.71 -141.66 222.07 -150.86 229.65 C-152.44 230.94 -154.01 232.23 -155.59 233.51 C-166.48 242.34 -177.07 251.46 -187.31 261.03 C-189.95 263.49 -192.64 265.89 -195.34 268.29 C-201.49 273.81 -207.26 279.67 -213.06 285.56 C-214.44 286.95 -215.82 288.34 -217.2 289.73 C-218 290.55 -218.81 291.37 -219.64 292.21 C-222.6 295.02 -224.23 295.23 -228.21 295.21 C-229.1 295.2 -230 295.2 -230.92 295.2 C-231.86 295.19 -232.8 295.18 -233.76 295.17 C-234.71 295.17 -235.65 295.16 -236.62 295.16 C-238.96 295.15 -241.3 295.13 -243.64 295.11 C-244.97 291.11 -243.91 289.94 -242.13 286.17 C-241.99 285.87 -241.99 285.87 -241.29 284.38 C-240.37 282.43 -239.44 280.49 -238.51 278.55 C-237.87 277.19 -237.22 275.83 -236.58 274.47 C-234.62 270.34 -232.63 266.22 -230.64 262.11 C-230.35 261.52 -230.35 261.52 -228.9 258.52 C-215.37 230.65 -199.89 203.82 -182.84 177.94 C-181.77 176.31 -180.7 174.66 -179.63 173.02 C-167.13 153.96 -153.31 135.55 -138.64 118.11 C-138.41 117.84 -138.41 117.84 -137.28 116.5 C-130.5 108.44 -123.52 100.59 -116.31 92.9 C-114.48 90.95 -112.67 88.98 -110.85 87.01 C-102.68 78.19 -94.27 69.78 -85.37 61.69 C-83.71 60.18 -82.06 58.65 -80.42 57.11 C-74.03 51.17 -67.46 45.54 -60.64 40.11 C-59.57 39.25 -58.5 38.39 -57.43 37.53 C-42.23 25.35 -26.11 14.48 -9.64 4.11 C-8.99 3.68 -8.34 3.25 -7.67 2.81 C-5.06 1.17 -3.11 0.13 0 0 Z " fill="#FBEDE5" transform="translate(909.63671875,694.890625)"/>
<path d="M0 0 C0.45 37.87 -2.1 73.48 -13 110 C-13.18 110.61 -13.18 110.61 -14.09 113.68 C-15.8 119.09 -17.87 124.12 -20.5 129.14 C-21.72 131.46 -22.88 133.79 -24.03 136.14 C-24.38 136.87 -24.74 137.6 -25.11 138.35 C-25.82 139.81 -26.53 141.27 -27.23 142.73 C-29.78 147.89 -29.78 147.89 -32 149 C-34.87 149.1 -37.72 149.13 -40.59 149.12 C-41.04 149.12 -41.04 149.12 -43.32 149.12 C-46.35 149.12 -49.39 149.12 -52.42 149.11 C-54.59 149.11 -56.76 149.11 -58.93 149.11 C-64.83 149.11 -70.73 149.11 -76.63 149.1 C-82.79 149.1 -88.95 149.09 -95.11 149.09 C-106.78 149.09 -118.46 149.08 -130.13 149.07 C-143.41 149.06 -156.7 149.06 -169.99 149.05 C-197.32 149.04 -224.66 149.02 -252 149 C-250.13 144.89 -247.38 142.29 -244.06 139.31 C-243.48 138.78 -242.89 138.25 -242.29 137.7 C-237.99 133.82 -233.59 130.1 -229.07 126.48 C-226.69 124.55 -224.32 122.61 -221.96 120.65 C-213.8 113.87 -205.58 107.25 -197 101 C-195.77 100.09 -194.54 99.18 -193.32 98.27 C-138.34 57.72 -78.11 25.88 -13.99 2.48 C-13.34 2.25 -12.69 2.01 -12.02 1.76 C-3.72 -1.24 -3.72 -1.24 0 0 Z " fill="#FBEDE5" transform="translate(956,841)"/>
<path d="M0 0 C-1.33 2.93 -2.8 5.07 -5.01 7.39 C-5.6 8.01 -6.19 8.64 -6.8 9.28 C-7.42 9.93 -8.04 10.58 -8.69 11.25 C-9.97 12.6 -11.25 13.96 -12.54 15.32 C-12.84 15.64 -12.84 15.64 -14.38 17.27 C-16.18 19.2 -17.92 21.17 -19.62 23.19 C-31.12 36.38 -44.02 49.21 -62.5 50.5 C-69.64 50.22 -75.64 46.45 -80.69 41.63 C-81.17 41.1 -81.64 40.58 -82.14 40.04 C-85.27 38.29 -87.61 39.16 -91 40 C-94.35 41.81 -94.35 41.81 -97.62 44 C-101.45 46.55 -104.39 48.45 -109 49 C-108.42 44.61 -107.31 40.94 -105.56 36.88 C-105.13 35.86 -104.7 34.85 -104.25 33.8 C-103.84 32.88 -103.43 31.95 -103 31 C-102.77 30.27 -102.54 29.53 -102.31 28.78 C-100.15 25.85 -96.88 25.5 -93.5 24.69 C-91.87 24.27 -90.24 23.84 -88.61 23.42 C-87.72 23.2 -86.82 22.97 -85.9 22.74 C-80.5 21.36 -75.13 19.89 -69.75 18.44 C-68.62 18.13 -67.49 17.83 -66.32 17.52 C-59.82 15.77 -53.34 13.97 -46.87 12.09 C-40.13 10.17 -33.34 8.39 -26.57 6.58 C-19.5 4.69 -12.45 2.73 -5.44 0.63 C-3 0 -3 0 0 0 Z " fill="#C2410C" transform="translate(647,564)"/>
<path d="M0 0 C2.38 0 4.76 -0.02 7.15 -0.05 C8.68 -0.05 10.2 -0.05 11.73 -0.05 C12.44 -0.06 13.14 -0.07 13.87 -0.08 C18.25 -0.03 21.02 0.61 24.49 3.32 C27.03 7.13 27.16 9.92 26.49 14.32 C22.51 27.6 13.49 40.43 1.4 47.55 C-3.79 49.64 -9.52 48.35 -14.51 46.32 C-21.49 41.64 -27.31 35.88 -32.51 29.32 C-32.97 28.75 -33.42 28.19 -33.89 27.61 C-37.51 22.4 -37.35 16.37 -36.51 10.32 C-34.15 5.86 -31.16 4.09 -26.51 2.32 C-17.76 0.02 -8.98 -0.03 0 0 Z " fill="#C2410C" transform="translate(388.5087890625,675.684326171875)"/>
</svg>
